<svg xmlns="http://www.w3.org/2000/svg" xmlns:xlink="http://www.w3.org/1999/xlink" width="400" height="400" viewBox="0 0 400 400"><g data-name="icon" fill="#f3f0ed" data="id:7284252" transform="translate(-28.50720210704803, -28.531890125457466) scale(4.571298532876469)">
    
 <path d="m84.578 15.199c-6.7188-1.3594-25.34 4-29.66 15.18h0.003906c-0.33594-0.76172-0.59375-1.5625-0.76172-2.3789-0.058594-0.26562-0.30859-0.44531-0.58203-0.42188-0.82031 0-1.4609 2.5781-1.8008 4.2617h0.003906c-0.082031-0.57031-0.082031-1.1484 0-1.7188 0.035156-0.22266-0.070312-0.44531-0.26562-0.55859-0.19922-0.10938-0.44141-0.085938-0.61719 0.058594-2.4219 2-4.8203 4-7.1211 6.1797-1.7383 1.6211-2.2188 4.8594-2.6797 7.3398h0.003906c-0.44922-0.85547-0.66406-1.8164-0.62109-2.7812 0.007812-0.20703-0.10156-0.40234-0.28516-0.5-0.18359-0.097656-0.40625-0.082031-0.57422 0.039063-12.102 9.3398-16.5 21.699-14 28.781-3.707 4.668-7.2539 9.4219-10.641 14.262l4-1.3398c0.10547-0.039062 0.19531-0.10937 0.25781-0.20312 0.60156-0.80078 3.8594-5.2383 8.3984-11.141l0.003906 0.003907c0.91016 0.25391 1.8516 0.38281 2.8008 0.37891 7.2266-0.53906 13.996-3.7578 18.98-9.0195l4.2383-4.8789v-0.003907c0.14062-0.17578 0.15234-0.42578 0.03125-0.61719s-0.34766-0.28906-0.57031-0.24219c-1.582 0.43359-3.2305 0.57422-4.8594 0.42188l3.0586-1.1602c8.5586-3.3203 14-10.98 19.199-18.379 1.1992-1.6797 2.3398-3.2812 3.5-4.8203 0.125-0.16797 0.14062-0.39453 0.042969-0.57812-0.097656-0.18359-0.29297-0.29297-0.50391-0.28516-0.66406 0.070313-1.332 0.070313-2 0 1.668-0.32812 3.2695-0.92969 4.7422-1.7773 0.17188-0.13672 0.24219-0.36328 0.18359-0.57422-0.0625-0.21094-0.24609-0.36328-0.46484-0.38672l-1.3789-0.10156c4.1602-1.8203 6.6211-6 8.8203-9.8984l1.4609-2.3398c0.085937-0.14844 0.097656-0.32812 0.03125-0.48438-0.066406-0.16016-0.20703-0.27734-0.375-0.31641zm-2 2.5586c-2.5781 4.4805-5.418 9.543-11 10.242-0.25 0.050781-0.43359 0.27344-0.43359 0.53125s0.18359 0.48047 0.43359 0.52734l2.5195 0.19922 0.003906 0.003907c-1.5156 0.52734-3.0781 0.92188-4.6602 1.1797-0.21484 0.046875-0.37891 0.21484-0.41797 0.42969-0.039063 0.21484 0.054687 0.42969 0.23828 0.55078 1.0469 0.54297 2.2148 0.81641 3.3984 0.79688-0.94141 1.2812-1.8789 2.6016-2.8594 4-5.1406 7.2617-10.441 14.781-18.719 18l-4.8438 1.7812c-0.21484 0.074219-0.35938 0.28125-0.35938 0.51172 0 0.22656 0.14453 0.43359 0.35938 0.50781 1.8633 0.44531 3.793 0.51953 5.6836 0.21875l-3.1992 3.6797c-4.7227 5.6211-14.723 9.5625-20.223 8.4219 4.3398-5.6602 9.3594-12 13.301-16.52 8.8281-10.25 18.695-19.562 29.438-27.781 0.074219-0.0625 0.074219-0.17578 0-0.23828-0.078125-0.066406-0.19531-0.066406-0.27734 0-11.117 7.8867-21.398 16.895-30.68 26.879-4.8398 5.1484-9.4453 10.48-13.82 16-1.8398-6.6211 2.3008-17.621 13.059-26.281 0.18359 1.2656 0.6875 2.4648 1.4609 3.4805 0.12109 0.17188 0.33203 0.25391 0.53516 0.21484 0.20703-0.039062 0.37109-0.19141 0.42578-0.39453 0.12109-0.55859 0.23828-1.1992 0.35938-1.8789 0.16016-2.2539 0.94141-4.4219 2.2578-6.2617 2-1.8594 4-3.6406 6.1211-5.3398-0.027344 1.1367 0.26562 2.2617 0.83984 3.2422 0.35938 0.60156 1.3398 0.23828 1-0.42188 0.16406-1.5 0.48047-2.9805 0.94141-4.418 0.23437 0.86328 0.63281 1.6719 1.1797 2.3789 0.12891 0.14453 0.32812 0.21094 0.51953 0.17578 0.19141-0.039062 0.35156-0.17188 0.41797-0.35547 3.1406-10.82 20.941-16.422 28-15.641z" fill="#000000"/>
 <path d="m81.238 79.66c-0.99609 0.55078-2.0391 1.0117-3.1172 1.3789-2.1797 0.76172-4.4219 1.3242-6.6992 1.6797-9.1406 1.2266-18.379 1.5586-27.582 1-9.2383-0.30078-18.5-0.76172-27.762-0.39844v0.10156c9.2383 0.30078 18.461 1.0586 27.719 1.3984 4.6211 0.19922 9.2617 0.26172 14 0h0.003906c4.6484-0.125 9.2812-0.65234 13.84-1.582 2.2773-0.46875 4.5156-1.1055 6.6992-1.8984 1.0586-0.37109 2.0859-0.81641 3.082-1.3398 1.0234-0.58594 1.9023-1.3945 2.5781-2.3594 0.74609-1.0195 0.79297-2.3906 0.12109-3.4609-0.6875-0.97266-1.6367-1.7305-2.7422-2.1797-2.1836-0.89453-4.5-1.418-6.8594-1.5391-2.3398-0.16016-4.6875-0.12109-7.0195 0.11719-2.3633 0.15625-4.6875 0.6875-6.8789 1.582-0.60547 0.26953-1.1133 0.71484-1.4609 1.2812-0.18359 0.36328-0.18359 0.79297 0 1.1602 0.15625 0.32031 0.41016 0.58594 0.71875 0.75781 1.0781 0.5625 2.2695 0.86719 3.4805 0.90234 2.3086 0.12891 4.6289 0.042969 6.9219-0.26172-2.3008 0.13281-4.6094 0.085938-6.9023-0.14062-1.1055-0.078125-2.1836-0.39062-3.1602-0.91797-0.17969-0.11719-0.32812-0.28516-0.41797-0.48047-0.078125-0.16016-0.078125-0.34375 0-0.5 0.28906-0.40625 0.68359-0.72656 1.1406-0.92188 2.1172-0.78906 4.3398-1.2539 6.5977-1.3789 2.2812-0.21484 4.5742-0.26562 6.8594-0.16016 2.2773 0.035156 4.5352 0.44141 6.6797 1.1992 1.0508 0.34766 1.9766 0.99609 2.6602 1.8594 0.64062 0.90625 0.64062 2.1172 0 3.0195-0.66016 0.87891-1.5156 1.5938-2.5 2.082z" fill="#000000"/>

    </g></svg>